<svg width="60" height="60" viewBox="0 0 60 60" fill="none" xmlns="http://www.w3.org/2000/svg">
<rect width="60" height="60" rx="12" fill="#636366"/>
<path fill-rule="evenodd" clip-rule="evenodd" d="M30.0001 30.8657C29.5793 30.8737 29.161 30.7978 28.7699 30.6424C28.3787 30.4869 28.0225 30.255 27.722 29.9602C27.4215 29.6655 27.1828 29.3138 27.0199 28.9256C26.8569 28.5375 26.773 28.1208 26.773 27.6999C26.773 27.279 26.8569 26.8623 27.0199 26.4742C27.1828 26.0861 27.4215 25.7344 27.722 25.4396C28.0225 25.1448 28.3787 24.9129 28.7699 24.7575C29.161 24.602 29.5793 24.5261 30.0001 24.5342C30.8292 24.5501 31.619 24.8906 32.1997 25.4826C32.7804 26.0745 33.1057 26.8707 33.1057 27.6999C33.1057 28.5292 32.7804 29.3253 32.1997 29.9173C31.619 30.5092 30.8292 30.8498 30.0001 30.8657M27.5221 17.2098C22.5404 18.3217 19.0474 23.0105 19.2434 28.1112C19.3974 32.1175 21.8556 35.7015 29.1694 42.733C29.6314 43.1763 30.3711 43.1787 30.8343 42.7342C38.3989 35.4623 40.7696 31.8783 40.7696 27.6993C40.7696 20.9443 34.5478 15.6418 27.5221 17.211" fill="#F9FAFB"/>
</svg>
