<svg width="60" height="60" viewBox="0 0 60 60" fill="none" xmlns="http://www.w3.org/2000/svg">
<rect width="60" height="60" rx="12" fill="#636366"/>
<path fill-rule="evenodd" clip-rule="evenodd" d="M35.2698 18.5084L23.0408 24.7932H19.4078C18.7428 24.7932 18.2026 25.3333 18.2026 25.9983V34.0017C18.2026 34.6667 18.7428 35.2068 19.4078 35.2068H23.0408L35.2698 41.4917C35.4477 41.5831 35.6461 41.6272 35.846 41.6198C36.0458 41.6125 36.2405 41.5538 36.4111 41.4496C36.5818 41.3453 36.7228 41.1989 36.8206 41.0245C36.9184 40.85 36.9697 40.6534 36.9696 40.4533V19.5467C36.9697 19.3467 36.9184 19.15 36.8206 18.9756C36.7228 18.8011 36.5818 18.6547 36.4111 18.5504C36.2405 18.4462 36.0458 18.3876 35.846 18.3802C35.6461 18.3728 35.4477 18.4169 35.2698 18.5084ZM40.7753 26.6948H38.4933V33.3052H40.7741C41.6188 33.3052 42.3025 32.6203 42.3025 31.7757V28.2255C42.3025 27.3797 41.6188 26.6948 40.7741 26.6948" fill="#F9FAFB"/>
</svg>
