<svg width="36" height="36" viewBox="0 0 36 36" fill="none" xmlns="http://www.w3.org/2000/svg">
<path fill-rule="evenodd" clip-rule="evenodd" d="M18 27.4005C15.9137 27.3981 13.9136 26.5683 12.4384 25.0931C10.9632 23.6179 10.1333 21.6177 10.1309 19.5315C10.1329 17.445 10.9626 15.4444 12.4378 13.9689C13.9131 12.4934 15.9134 11.6634 18 11.661C20.0865 11.6634 22.0868 12.4934 23.5621 13.9689C25.0373 15.4444 25.867 17.445 25.8689 19.5315C25.8666 21.6177 25.0368 23.6179 23.5615 25.0931C22.0863 26.5683 20.0862 27.3981 18 27.4005ZM30.1695 7.70398H25.7385L24.0689 4.45048C23.8042 3.93543 23.4026 3.50332 22.9083 3.20164C22.414 2.89997 21.8461 2.7404 21.267 2.74048H14.6475C14.057 2.74041 13.4783 2.90632 12.9776 3.21928C12.4768 3.53225 12.0741 3.97966 11.8154 4.51048L10.2614 7.70398H5.83045C5.33393 7.70378 4.84223 7.80141 4.38345 7.99128C3.92466 8.18116 3.50778 8.45956 3.15662 8.81058C2.80545 9.16161 2.52689 9.57838 2.33683 10.0371C2.14677 10.4958 2.04895 10.9875 2.04895 11.484V28.8855C2.04895 29.382 2.14677 29.8737 2.33683 30.3324C2.52689 30.7911 2.80545 31.2078 3.15662 31.5589C3.50778 31.9099 3.92466 32.1883 4.38345 32.3782C4.84223 32.568 5.33393 32.6657 5.83045 32.6655H30.1695C30.666 32.6657 31.1577 32.568 31.6165 32.3782C32.0752 32.1883 32.4921 31.9099 32.8433 31.5589C33.1944 31.2078 33.473 30.7911 33.6631 30.3324C33.8531 29.8737 33.951 29.382 33.951 28.8855V11.484C33.951 10.9875 33.8531 10.4958 33.6631 10.0371C33.473 9.57838 33.1944 9.16161 32.8433 8.81058C32.4921 8.45956 32.0752 8.18116 31.6165 7.99128C31.1577 7.80141 30.666 7.70378 30.1695 7.70398Z" fill="#8E8E93"/>
<path fill-rule="evenodd" clip-rule="evenodd" d="M17.9999 14.4961C16.6654 14.4977 15.3861 15.0286 14.4426 15.9724C13.4991 16.9161 12.9686 18.1956 12.9674 19.5301C12.9682 20.8647 13.4986 22.1444 14.4422 23.0883C15.3857 24.0321 16.6653 24.5629 17.9999 24.5641C19.3345 24.5629 20.6141 24.0321 21.5576 23.0883C22.5012 22.1444 23.0316 20.8647 23.0324 19.5301C23.0312 18.1956 22.5007 16.9161 21.5572 15.9724C20.6137 15.0286 19.3344 14.4977 17.9999 14.4961Z" fill="#8E8E93"/>
</svg>
