<svg width="60" height="60" viewBox="0 0 60 60" fill="none" xmlns="http://www.w3.org/2000/svg">
<rect width="60" height="60" rx="12" fill="#636366"/>
<path fill-rule="evenodd" clip-rule="evenodd" d="M30.0001 37.3115C28.3774 37.3096 26.8218 36.6642 25.6744 35.5168C24.527 34.3694 23.8816 32.8138 23.8797 31.1911C23.8813 29.5683 24.5266 28.0123 25.674 26.8647C26.8214 25.7171 28.3772 25.0715 30.0001 25.0696C31.6229 25.0715 33.1788 25.7171 34.3262 26.8647C35.4736 28.0123 36.1189 29.5683 36.1204 31.1911C36.1186 32.8138 35.4731 34.3694 34.3258 35.5168C33.1784 36.6642 31.6227 37.3096 30.0001 37.3115M39.4653 21.992H36.0189L34.7204 19.4615C34.5145 19.0609 34.2022 18.7248 33.8177 18.4902C33.4332 18.2555 32.9915 18.1314 32.5411 18.1315H27.3926C26.9333 18.1314 26.4833 18.2605 26.0938 18.5039C25.7043 18.7473 25.3911 19.0953 25.1899 19.5081L23.9812 21.992H20.5349C20.1487 21.9918 19.7663 22.0677 19.4095 22.2154C19.0526 22.3631 18.7284 22.5796 18.4553 22.8527C18.1821 23.1257 17.9655 23.4498 17.8177 23.8066C17.6698 24.1634 17.5937 24.5458 17.5938 24.932V38.4665C17.5937 38.8527 17.6698 39.2351 17.8177 39.5918C17.9655 39.9486 18.1821 40.2728 18.4553 40.5458C18.7284 40.8188 19.0526 41.0353 19.4095 41.183C19.7663 41.3307 20.1487 41.4066 20.5349 41.4065H39.4653C39.8514 41.4066 40.2339 41.3307 40.5907 41.183C40.9475 41.0353 41.2718 40.8188 41.5449 40.5458C41.818 40.2728 42.0347 39.9486 42.1825 39.5918C42.3303 39.2351 42.4064 38.8527 42.4064 38.4665V24.932C42.4064 24.5458 42.3303 24.1634 42.1825 23.8066C42.0347 23.4498 41.818 23.1257 41.5449 22.8527C41.2718 22.5796 40.9475 22.3631 40.5907 22.2154C40.2339 22.0677 39.8514 21.9918 39.4653 21.992" fill="#F9FAFB"/>
<path fill-rule="evenodd" clip-rule="evenodd" d="M30.0001 27.2747C28.9622 27.2759 27.9671 27.6888 27.2333 28.4229C26.4995 29.1569 26.0869 30.1521 26.0859 31.19C26.0866 32.228 26.4991 33.2234 27.233 33.9575C27.9669 34.6916 28.9621 35.1044 30.0001 35.1053C31.0381 35.1044 32.0333 34.6916 32.7672 33.9575C33.5011 33.2234 33.9137 32.228 33.9143 31.19C33.9133 30.1521 33.5007 29.1569 32.7669 28.4229C32.0331 27.6888 31.038 27.2759 30.0001 27.2747Z" fill="#F9FAFB"/>
</svg>
