<svg width="18" height="19" viewBox="0 0 18 19" fill="none" xmlns="http://www.w3.org/2000/svg">
<g id="icon-pin-location-mono">
<path id="Vector" fill-rule="evenodd" clip-rule="evenodd" d="M8.99988 10.0564C8.72934 10.0616 8.46047 10.0128 8.20901 9.91288C7.95755 9.81294 7.72854 9.66386 7.53538 9.47437C7.34221 9.28488 7.18876 9.05877 7.08401 8.80927C6.97926 8.55978 6.92531 8.2919 6.92531 8.02131C6.92531 7.75071 6.97926 7.48284 7.08401 7.23334C7.18876 6.98384 7.34221 6.75774 7.53538 6.56824C7.72854 6.37875 7.95755 6.22967 8.20901 6.12973C8.46047 6.02979 8.72934 5.98099 8.99988 5.98618C9.53287 5.99641 10.0406 6.21533 10.4139 6.59587C10.7872 6.97642 10.9963 7.48822 10.9963 8.02131C10.9963 8.55439 10.7872 9.0662 10.4139 9.44674C10.0406 9.82729 9.53287 10.0462 8.99988 10.0564ZM7.40688 1.27768C4.20438 1.99243 1.95888 5.00668 2.08488 8.28568C2.18388 10.8612 3.76413 13.1652 8.46588 17.6854C8.76288 17.9704 9.23838 17.9719 9.53613 17.6862C14.3991 13.0114 15.9231 10.7074 15.9231 8.02093C15.9231 3.67843 11.9234 0.269682 7.40688 1.27843" fill="#636366"/>
</g>
</svg>
