<svg width="28" height="29" viewBox="0 0 28 29" fill="none" xmlns="http://www.w3.org/2000/svg">
<g id="icon-clock-mono">
<path id="Vector" fill-rule="evenodd" clip-rule="evenodd" d="M15.1667 14.2212C15.1667 14.2597 15.148 14.2935 15.1445 14.3308C15.1379 14.4099 15.1219 14.4878 15.0967 14.563C15.0544 14.7025 14.9855 14.8325 14.8937 14.9457C14.8423 15.0075 14.7887 15.0623 14.7257 15.1137C14.6965 15.137 14.679 15.1708 14.6475 15.1918L9.13383 18.8668C8.87637 19.032 8.56434 19.0894 8.26494 19.0268C7.96554 18.9641 7.70272 18.7864 7.53308 18.5319C7.36344 18.2773 7.30055 17.9664 7.35795 17.6659C7.41536 17.3655 7.58847 17.0996 7.84 16.9255L12.8333 13.597V8.14867C12.8333 7.83925 12.9562 7.5425 13.175 7.32371C13.3938 7.10492 13.6906 6.982 14 6.982C14.3094 6.982 14.6062 7.10492 14.825 7.32371C15.0437 7.5425 15.1667 7.83925 15.1667 8.14867V14.2212ZM14 2.25C7.2345 2.25 1.75 7.7345 1.75 14.5C1.75 21.2655 7.2345 26.75 14 26.75C20.7655 26.75 26.25 21.2655 26.25 14.5C26.25 7.7345 20.7655 2.25 14 2.25Z" fill="#8E8E93"/>
</g>
</svg>
