<svg width="1024" height="1024" viewBox="0 0 1024 1024" fill="none" xmlns="http://www.w3.org/2000/svg">
<rect width="1024" height="1024" fill="black"/>
<path fill-rule="evenodd" clip-rule="evenodd" d="M513.081 168C553.939 168 591.672 175.574 626.281 190.722C660.891 205.381 690.692 225.66 715.689 251.558C740.683 276.968 760.151 306.775 774.091 340.98C788.031 374.696 795 410.857 795 449.46C795 470.959 792.596 490.993 787.789 509.562C782.983 528.131 775.772 544.5 766.159 558.672C757.026 572.353 745.25 583.347 730.829 591.655C716.889 599.472 700.786 603.381 682.521 603.381C664.255 603.381 647.911 598.74 633.492 589.455C619.071 580.171 607.775 566.978 599.603 549.876C588.549 566.978 574.609 580.171 557.785 589.455C540.961 598.74 521.494 603.381 499.383 603.381C479.674 603.381 461.409 599.716 444.585 592.387C427.761 585.058 412.859 574.797 399.881 561.602C387.383 548.409 377.53 532.772 370.32 514.693C363.11 496.124 359.504 475.846 359.504 453.857C359.504 431.868 363.11 411.834 370.32 393.753C378.01 375.184 388.106 359.303 400.602 346.11C413.1 332.917 427.52 322.656 443.864 315.326C460.688 307.997 478.232 304.332 496.498 304.332C514.764 304.332 531.107 307.997 545.528 315.326C559.948 322.656 571.965 332.428 581.578 344.645H585.905C585.905 328.048 599.651 314.593 616.253 314.593C633.178 314.593 647.191 328.31 647.191 345.229V500.033C647.191 511.761 650.316 522.755 656.564 533.018C663.293 542.791 673.387 547.676 686.848 547.676C695.98 547.676 703.671 544.744 709.92 538.88C716.168 533.018 720.975 525.443 724.341 516.158C728.185 506.386 730.829 495.636 732.271 483.908C733.714 472.181 734.435 460.453 734.435 448.725C734.435 418.919 728.666 390.577 717.13 363.702C706.074 336.827 690.692 313.372 670.985 293.337C651.276 272.814 627.965 256.689 601.045 244.961C574.127 233.234 544.806 227.37 513.081 227.37C482.318 227.37 453.477 232.99 426.559 244.228C399.642 255.467 376.328 271.104 356.62 291.138C336.913 310.684 321.29 334.139 309.754 361.503C298.218 388.867 292.45 418.674 292.45 450.925C292.45 483.175 298.218 512.982 309.754 540.347C322.189 577.549 370.32 658.526 452.421 681.732C502.645 695.927 587.825 689.649 647.265 655.676C651.416 653.304 655.971 651.691 660.727 651.191C686.702 648.461 703.811 676.333 687.685 696.871C643.175 753.555 591.113 799.892 544.118 844.26C526.175 861.199 497.805 861.283 479.911 844.293C408.269 776.265 301.299 677.442 249.91 560.869C235.97 526.665 229 490.016 229 450.925C229 412.322 235.97 375.918 249.91 341.713C264.33 307.019 284.038 276.968 309.033 251.558C334.509 225.66 364.552 205.381 399.16 190.722C433.77 175.574 471.742 168 513.081 168ZM534.711 533.75C525.098 537.659 515.004 539.614 504.429 539.614C493.854 539.614 483.76 537.659 474.146 533.75C464.533 529.841 455.881 524.222 448.189 516.892C440.979 509.562 435.212 500.522 430.885 489.772C426.559 479.022 424.397 467.05 424.397 453.857C424.397 440.664 426.559 428.691 430.885 417.942C435.212 407.191 440.979 398.152 448.189 390.821C455.881 383.492 464.533 377.872 474.146 373.963C483.76 370.054 493.854 368.099 504.429 368.099C515.004 368.099 525.098 370.054 534.711 373.963C544.326 377.872 552.737 383.492 559.948 390.821C567.639 398.152 573.648 407.191 577.973 417.942C582.299 428.203 584.463 440.175 584.463 453.857C584.463 467.538 582.299 479.755 577.973 490.505C573.648 500.766 567.639 509.562 559.948 516.892C552.737 524.222 544.326 529.841 534.711 533.75Z" fill="#D1FD0F"/>
</svg>
