<svg width="335" height="56" viewBox="0 0 335 56" fill="none" xmlns="http://www.w3.org/2000/svg">
<rect x="335" width="24" height="335" rx="12" transform="rotate(90 335 0)" fill="#383838"/>
<rect x="304" width="24" height="304" rx="12" transform="rotate(90 304 0)" fill="#636366"/>
<rect x="246" width="24" height="246" rx="12" transform="rotate(90 246 0)" fill="#8E8E93"/>
<rect x="169" width="24" height="169" rx="12" transform="rotate(90 169 0)" fill="#F9FAFB"/>
<rect x="0.5" y="42" width="12" height="12" rx="4" fill="#F9FAFB"/>
<path d="M24.6611 43.8086V53H23.5059V45.002H23.4551L21.2207 46.4873V45.332L23.5059 43.8086H24.6611ZM30.7168 45.7764C30.7041 47.833 32.1133 49.915 33.7764 50.6641L33.167 51.4512C31.8848 50.8228 30.7739 49.4961 30.2344 47.8838C29.7075 49.5913 28.5967 51.0132 27.2764 51.6797L26.6416 50.8418C28.3174 50.0674 29.7139 47.9219 29.7266 45.7764V43.7197H30.7168V45.7764ZM36.0107 42.7422V54.0537H35.0078V42.7422H36.0107ZM46.7637 42.7422V46.1826H48.4648V47.0205H46.7637V51.0068H45.7607V42.7422H46.7637ZM43.7168 43.6182C43.7168 46.5254 41.6348 48.6836 38.3848 49.6992L37.9531 48.8994C40.6572 48.0552 42.4219 46.4429 42.6377 44.4561H38.4229V43.6182H43.7168ZM47.2842 52.9492V53.7871H39.6924V50.1689H40.6826V52.9492H47.2842ZM61.7441 42.7422V54.0537H60.7412V42.7422H61.7441ZM55.7393 43.6182C57.415 43.6309 58.6211 45.1543 58.6211 47.5537C58.6211 49.9531 57.415 51.4766 55.7393 51.4766C54.0508 51.4766 52.8574 49.9531 52.8574 47.5537C52.8574 45.1543 54.0508 43.6309 55.7393 43.6182ZM55.7393 44.5068C54.6094 44.5195 53.8223 45.7129 53.8223 47.5537C53.8223 49.3945 54.6094 50.5879 55.7393 50.5879C56.8691 50.5879 57.6562 49.3945 57.6562 47.5537C57.6562 45.7129 56.8691 44.5195 55.7393 44.5068ZM67.4443 44.5703C67.4443 46.1064 68.6123 47.5156 70.25 48.0742L69.7041 48.8613C68.4536 48.4043 67.4697 47.4712 66.9746 46.2969C66.4922 47.6235 65.4893 48.6709 64.1689 49.1787L63.6357 48.3789C65.3242 47.7441 66.4541 46.2334 66.4668 44.4941V43.3262H67.4443V44.5703ZM72.4971 42.7422V45.6875H74.1982V46.5254H72.4971V49.6104H71.5068V42.7422H72.4971ZM68.8789 49.9023C71.2021 49.9023 72.5986 50.6514 72.5986 51.9463C72.5986 53.2666 71.2021 54.0029 68.8789 54.0029C66.5557 54.0029 65.1338 53.2666 65.1338 51.9463C65.1338 50.6514 66.5557 49.9023 68.8789 49.9023ZM68.8789 50.7021C67.1777 50.7021 66.124 51.1719 66.1367 51.9463C66.124 52.7461 67.1777 53.2031 68.8789 53.2158C70.5928 53.2031 71.6338 52.7461 71.6338 51.9463C71.6338 51.1719 70.5928 50.7021 68.8789 50.7021Z" fill="#8E8E93"/>
<rect x="85.5" y="42" width="12" height="12" rx="4" fill="#8E8E93"/>
<path d="M109.661 43.8086V53H108.506V45.002H108.455L106.221 46.4873V45.332L108.506 43.8086H109.661ZM115.717 45.7764C115.704 47.833 117.113 49.915 118.776 50.6641L118.167 51.4512C116.885 50.8228 115.774 49.4961 115.234 47.8838C114.708 49.5913 113.597 51.0132 112.276 51.6797L111.642 50.8418C113.317 50.0674 114.714 47.9219 114.727 45.7764V43.7197H115.717V45.7764ZM121.011 42.7422V54.0537H120.008V42.7422H121.011ZM131.764 42.7422V46.1826H133.465V47.0205H131.764V51.0068H130.761V42.7422H131.764ZM128.717 43.6182C128.717 46.5254 126.635 48.6836 123.385 49.6992L122.953 48.8994C125.657 48.0552 127.422 46.4429 127.638 44.4561H123.423V43.6182H128.717ZM132.284 52.9492V53.7871H124.692V50.1689H125.683V52.9492H132.284ZM143.316 43.8594V51.1973H138.099V43.8594H143.316ZM139.076 44.6592V50.3848H142.339V44.6592H139.076ZM146.744 42.7422V54.0537H145.741V42.7422H146.744ZM154.374 43.7705V48.9629H149.156V43.7705H154.374ZM150.134 44.583V48.1631H153.409V44.583H150.134ZM157.497 42.7422V46.1826H159.198V47.0205H157.497V51.0195H156.507V42.7422H157.497ZM158.018 52.9492V53.7871H150.438V50.2324H151.416V52.9492H158.018Z" fill="#8E8E93"/>
<rect x="170.5" y="42" width="12" height="12" rx="4" fill="#636366"/>
<path d="M191.446 53L191.434 52.1621L194.569 48.8613C195.661 47.7061 196.182 47.084 196.182 46.2334C196.182 45.2939 195.382 44.6719 194.354 44.6719C193.262 44.6719 192.563 45.3701 192.563 46.3984H191.484C191.472 44.7734 192.729 43.6816 194.392 43.6816C196.055 43.6816 197.248 44.7988 197.248 46.2334C197.248 47.2617 196.766 48.0615 195.141 49.7373L193.033 51.9082V51.9844H197.413V53H191.446ZM202.682 45.7764C202.669 47.833 204.078 49.915 205.741 50.6641L205.132 51.4512C203.85 50.8228 202.739 49.4961 202.199 47.8838C201.672 49.5913 200.562 51.0132 199.241 51.6797L198.606 50.8418C200.282 50.0674 201.679 47.9219 201.691 45.7764V43.7197H202.682V45.7764ZM207.976 42.7422V54.0537H206.973V42.7422H207.976ZM218.729 42.7422V46.1826H220.43V47.0205H218.729V51.0068H217.726V42.7422H218.729ZM215.682 43.6182C215.682 46.5254 213.6 48.6836 210.35 49.6992L209.918 48.8994C212.622 48.0552 214.387 46.4429 214.603 44.4561H210.388V43.6182H215.682ZM219.249 52.9492V53.7871H211.657V50.1689H212.647V52.9492H219.249ZM233.709 42.7422V54.0537H232.706V42.7422H233.709ZM227.704 43.6182C229.38 43.6309 230.586 45.1543 230.586 47.5537C230.586 49.9531 229.38 51.4766 227.704 51.4766C226.016 51.4766 224.822 49.9531 224.822 47.5537C224.822 45.1543 226.016 43.6309 227.704 43.6182ZM227.704 44.5068C226.574 44.5195 225.787 45.7129 225.787 47.5537C225.787 49.3945 226.574 50.5879 227.704 50.5879C228.834 50.5879 229.621 49.3945 229.621 47.5537C229.621 45.7129 228.834 44.5195 227.704 44.5068ZM239.409 44.5703C239.409 46.1064 240.577 47.5156 242.215 48.0742L241.669 48.8613C240.418 48.4043 239.435 47.4712 238.939 46.2969C238.457 47.6235 237.454 48.6709 236.134 49.1787L235.601 48.3789C237.289 47.7441 238.419 46.2334 238.432 44.4941V43.3262H239.409V44.5703ZM244.462 42.7422V45.6875H246.163V46.5254H244.462V49.6104H243.472V42.7422H244.462ZM240.844 49.9023C243.167 49.9023 244.563 50.6514 244.563 51.9463C244.563 53.2666 243.167 54.0029 240.844 54.0029C238.521 54.0029 237.099 53.2666 237.099 51.9463C237.099 50.6514 238.521 49.9023 240.844 49.9023ZM240.844 50.7021C239.143 50.7021 238.089 51.1719 238.102 51.9463C238.089 52.7461 239.143 53.2031 240.844 53.2158C242.558 53.2031 243.599 52.7461 243.599 51.9463C243.599 51.1719 242.558 50.7021 240.844 50.7021Z" fill="#8E8E93"/>
<rect x="257.5" y="42" width="12" height="12" rx="4" fill="#383838"/>
<path d="M281.923 53.127C280.095 53.127 278.788 52.1494 278.724 50.6895H279.879C279.943 51.5654 280.819 52.1113 281.911 52.1113C283.117 52.1113 284.005 51.4512 284.005 50.499C284.005 49.4961 283.206 48.7852 281.771 48.7852H281.022V47.7822H281.771C282.888 47.7822 283.663 47.1602 283.663 46.208C283.663 45.2939 282.99 44.6719 281.949 44.6719C280.971 44.6719 280.07 45.2178 280.019 46.1191H278.915C278.978 44.6592 280.324 43.6816 281.961 43.6816C283.713 43.6816 284.78 44.8242 284.767 46.1445C284.78 47.1855 284.17 47.96 283.206 48.2266V48.29C284.399 48.4805 285.135 49.3311 285.123 50.499C285.135 52.0098 283.751 53.127 281.923 53.127ZM290.378 45.7764C290.366 47.833 291.775 49.915 293.438 50.6641L292.829 51.4512C291.546 50.8228 290.436 49.4961 289.896 47.8838C289.369 49.5913 288.258 51.0132 286.938 51.6797L286.303 50.8418C287.979 50.0674 289.375 47.9219 289.388 45.7764V43.7197H290.378V45.7764ZM295.672 42.7422V54.0537H294.669V42.7422H295.672ZM306.425 42.7422V46.1826H308.126V47.0205H306.425V51.0068H305.422V42.7422H306.425ZM303.378 43.6182C303.378 46.5254 301.296 48.6836 298.046 49.6992L297.615 48.8994C300.319 48.0552 302.083 46.4429 302.299 44.4561H298.084V43.6182H303.378ZM306.946 52.9492V53.7871H299.354V50.1689H300.344V52.9492H306.946ZM321.406 42.7422V54.0537H320.403V42.7422H321.406ZM315.401 43.6182C317.077 43.6309 318.283 45.1543 318.283 47.5537C318.283 49.9531 317.077 51.4766 315.401 51.4766C313.712 51.4766 312.519 49.9531 312.519 47.5537C312.519 45.1543 313.712 43.6309 315.401 43.6182ZM315.401 44.5068C314.271 44.5195 313.484 45.7129 313.484 47.5537C313.484 49.3945 314.271 50.5879 315.401 50.5879C316.531 50.5879 317.318 49.3945 317.318 47.5537C317.318 45.7129 316.531 44.5195 315.401 44.5068ZM327.106 44.5703C327.106 46.1064 328.274 47.5156 329.912 48.0742L329.366 48.8613C328.115 48.4043 327.131 47.4712 326.636 46.2969C326.154 47.6235 325.151 48.6709 323.831 49.1787L323.297 48.3789C324.986 47.7441 326.116 46.2334 326.128 44.4941V43.3262H327.106V44.5703ZM332.159 42.7422V45.6875H333.86V46.5254H332.159V49.6104H331.168V42.7422H332.159ZM328.541 49.9023C330.864 49.9023 332.26 50.6514 332.26 51.9463C332.26 53.2666 330.864 54.0029 328.541 54.0029C326.217 54.0029 324.795 53.2666 324.795 51.9463C324.795 50.6514 326.217 49.9023 328.541 49.9023ZM328.541 50.7021C326.839 50.7021 325.786 51.1719 325.798 51.9463C325.786 52.7461 326.839 53.2031 328.541 53.2158C330.254 53.2031 331.295 52.7461 331.295 51.9463C331.295 51.1719 330.254 50.7021 328.541 50.7021Z" fill="#8E8E93"/>
</svg>
