<svg width="24" height="24" viewBox="0 0 24 24" fill="none" xmlns="http://www.w3.org/2000/svg">
<path fill-rule="evenodd" clip-rule="evenodd" d="M12 12.7421C11.6393 12.749 11.2808 12.6839 10.9456 12.5507C10.6103 12.4174 10.3049 12.2186 10.0474 11.966C9.78982 11.7133 9.58522 11.4119 9.44556 11.0792C9.30589 10.7465 9.23395 10.3894 9.23395 10.0286C9.23395 9.66778 9.30589 9.31061 9.44556 8.97795C9.58522 8.64529 9.78982 8.34381 10.0474 8.09115C10.3049 7.8385 10.6103 7.63973 10.9456 7.50647C11.2808 7.37321 11.6393 7.30815 12 7.31507C12.7107 7.32871 13.3876 7.6206 13.8854 8.12799C14.3831 8.63539 14.662 9.3178 14.662 10.0286C14.662 10.7393 14.3831 11.4218 13.8854 11.9292C13.3876 12.4365 12.7107 12.7284 12 12.7421M9.87605 1.03707C5.60605 1.99007 2.61205 6.00907 2.78005 10.3811C2.91205 13.8151 5.01905 16.8871 11.288 22.9141C11.684 23.2941 12.318 23.2961 12.715 22.9151C19.199 16.6821 21.231 13.6101 21.231 10.0281C21.231 4.23807 15.898 -0.306928 9.87605 1.03807" fill="#8E8E93"/>
</svg>
